<svg xmlns="http://www.w3.org/2000/svg" viewBox="0 0 800 800"><rect width="800" height="800" fill="#c97d3a"/><g transform="translate(0.000000,800.000000) scale(0.100000,-0.100000)" fill="#efe3cd" stroke="none"><path d="M1630 7664 c-31 -5 -205 -41 -280 -58 -198 -47 -458 -202 -620 -372
-75 -79 -92 -100 -165 -203 -37 -54 -125 -218 -125 -234 0 -5 -13 -39 -29 -75
-16 -37 -32 -92 -36 -122 -4 -30 -17 -91 -28 -135 l-22 -80 0 -2375 0 -2375
22 -75 c12 -41 24 -97 28 -125 4 -27 20 -78 36 -112 16 -34 29 -67 29 -73 0
-18 79 -158 148 -262 35 -53 98 -133 139 -177 82 -89 235 -221 285 -247 18 -9
39 -23 47 -32 8 -8 31 -21 50 -29 19 -8 51 -26 70 -39 20 -13 42 -24 51 -24 8
0 38 -11 65 -25 28 -13 75 -29 105 -35 30 -6 93 -21 140 -33 l85 -22 2380 0
2380 0 85 22 c47 11 108 24 135 28 28 4 80 20 117 36 36 16 71 29 77 29 13 0
158 74 206 105 221 142 394 335 508 564 26 52 47 101 47 108 0 7 11 36 24 65
22 47 52 181 77 333 4 28 8 1096 8 2375 1 2087 -1 2332 -15 2395 -9 39 -24
108 -34 155 -9 47 -29 110 -43 140 -15 30 -27 62 -27 71 0 9 -13 36 -30 60
-16 24 -30 49 -30 55 0 8 -42 75 -117 184 -26 38 -133 160 -183 208 -58 56
-168 145 -200 162 -14 7 -34 20 -45 30 -24 21 -160 94 -195 105 -14 4 -47 18
-75 31 -27 12 -86 30 -130 38 -44 8 -98 20 -120 27 -32 11 -487 14 -2405 15
-1301 1 -2376 0 -2390 -2z m2900 -4627 c0 -1 -24 -25 -52 -52 l-53 -50 50 53
c46 48 55 57 55 49z"/></g><g transform="translate(0.000000,800.000000) scale(0.100000,-0.100000)" fill="#1a1612" stroke="none"><path d="M1630 7664 c-31 -5 -205 -41 -280 -58 -198 -47 -458 -202 -620 -372
-75 -79 -92 -100 -165 -203 -37 -54 -125 -218 -125 -234 0 -5 -13 -39 -29 -75
-16 -37 -32 -92 -36 -122 -4 -30 -17 -91 -28 -135 l-22 -80 0 -2375 0 -2375
22 -75 c12 -41 24 -97 28 -125 4 -27 20 -78 36 -112 16 -34 29 -67 29 -73 0
-18 79 -158 148 -262 35 -53 98 -133 139 -177 82 -89 235 -221 285 -247 18 -9
39 -23 47 -32 8 -8 31 -21 50 -29 19 -8 51 -26 70 -39 20 -13 42 -24 51 -24 8
0 38 -11 65 -25 28 -13 75 -29 105 -35 30 -6 93 -21 140 -33 l85 -22 2380 0
2380 0 85 22 c47 11 108 24 135 28 28 4 80 20 117 36 36 16 71 29 77 29 13 0
158 74 206 105 221 142 394 335 508 564 26 52 47 101 47 108 0 7 11 36 24 65
22 47 52 181 77 333 4 28 8 1096 8 2375 1 2087 -1 2332 -15 2395 -9 39 -24
108 -34 155 -9 47 -29 110 -43 140 -15 30 -27 62 -27 71 0 9 -13 36 -30 60
-16 24 -30 49 -30 55 0 8 -42 75 -117 184 -26 38 -133 160 -183 208 -58 56
-168 145 -200 162 -14 7 -34 20 -45 30 -24 21 -160 94 -195 105 -14 4 -47 18
-75 31 -27 12 -86 30 -130 38 -44 8 -98 20 -120 27 -32 11 -487 14 -2405 15
-1301 1 -2376 0 -2390 -2z m455 -241 c-8 -21 -187 -492 -399 -1048 -211 -555
-387 -1018 -391 -1027 -7 -17 11 -18 281 -18 l289 0 99 280 99 280 495 -2 495
-3 45 -125 c25 -69 83 -230 129 -358 46 -129 83 -235 81 -235 -96 -46 -143
-76 -183 -117 -46 -47 -48 -50 -25 -51 14 0 34 -2 45 -5 11 -2 81 -11 155 -19
179 -21 172 -19 214 -62 82 -85 116 -211 116 -440 0 -48 7 -134 15 -190 35
-248 126 -411 363 -650 123 -123 142 -148 182 -228 35 -72 44 -101 45 -143 l0
-54 -134 -81 c-121 -73 -139 -81 -180 -79 -28 1 -62 -6 -86 -17 -37 -17 -48
-18 -145 -5 -83 10 -330 57 -467 89 -16 4 -29 -5 -56 -42 -30 -41 -33 -49 -24
-74 10 -25 40 -40 281 -139 173 -70 320 -123 406 -146 74 -20 140 -41 146 -47
8 -8 735 -1911 812 -2125 3 -10 -313 -12 -1634 -10 l-1639 3 -60 27 c-33 14
-77 29 -97 33 -20 4 -51 18 -69 31 -18 13 -38 24 -45 24 -31 0 -236 153 -329
245 -136 136 -297 380 -320 484 -4 18 -19 58 -34 90 l-26 56 0 2490 c0 2385 1
2492 18 2535 10 25 26 68 34 95 53 166 186 373 319 495 123 112 324 233 434
261 25 6 59 18 75 27 47 24 119 29 412 31 l273 1 -15 -37z m4477 0 c42 -18 80
-33 85 -33 17 0 171 -85 245 -134 40 -27 118 -95 174 -150 132 -132 203 -228
263 -352 16 -34 34 -65 40 -68 6 -4 15 -26 21 -49 6 -23 23 -71 38 -107 l27
-65 0 -2495 0 -2495 -27 -62 c-14 -34 -29 -76 -33 -93 -6 -28 -64 -148 -111
-229 -35 -62 -168 -215 -238 -273 -134 -112 -276 -194 -401 -229 -38 -11 -75
-24 -81 -29 -24 -21 -167 -30 -490 -30 l-342 0 389 1067 c214 587 389 1069
389 1070 0 2 -128 3 -284 3 l-283 0 -110 -289 -109 -290 -28 77 c-16 42 -37
95 -47 117 -10 22 -31 74 -47 115 -16 41 -50 123 -75 183 -25 59 -43 107 -40
107 3 0 49 -37 102 -83 156 -134 201 -169 201 -159 0 5 -14 43 -31 83 -16 41
-36 90 -44 109 -7 19 -29 70 -49 114 -20 43 -36 83 -36 88 0 4 -20 51 -45 104
-25 52 -45 98 -45 103 0 5 -16 44 -36 87 -20 44 -54 135 -76 204 -128 397
-345 840 -534 1090 -60 79 -176 190 -306 293 -135 108 -182 159 -268 296 -142
226 -252 308 -440 329 l-64 7 -219 580 c-120 319 -298 793 -396 1053 l-179
472 1732 -2 1731 -3 77 -32z m-3802 -745 l197 -533 -395 -3 c-217 -1 -397 0
-400 3 -5 4 63 191 301 833 49 133 92 241 94 238 3 -3 94 -245 203 -538z
m1694 -3470 c3 -13 6 -44 6 -69 0 -43 -4 -50 -74 -123 -73 -76 -74 -77 -114
-70 -28 4 -46 2 -63 -9 -22 -15 -27 -14 -64 2 -22 10 -48 27 -58 39 -19 20
-18 21 85 88 56 37 123 75 148 84 29 10 52 27 65 48 24 38 60 43 69 10z m231
-308 c143 -211 319 -439 340 -440 6 -1 46 -49 90 -108 83 -111 175 -208 209
-218 11 -4 31 -18 45 -31 31 -30 121 -83 140 -83 13 0 151 -87 151 -95 0 -4
-381 -1015 -406 -1079 -5 -14 -9 -15 -14 -5 -8 14 -645 1710 -697 1853 -23 65
-33 81 -55 90 -20 7 -28 17 -28 35 0 15 -12 35 -32 51 l-32 27 32 41 c18 22
56 62 84 87 41 37 54 43 63 33 7 -7 56 -78 110 -158z"/></g></svg>